<svg version="1.1" viewBox="0.0 0.0 755.9055118110236 755.9055118110236" fill="none" stroke="none" stroke-linecap="square" stroke-miterlimit="10" xmlns:xlink="http://www.w3.org/1999/xlink" xmlns="http://www.w3.org/2000/svg">
  <clipPath id="p.0">
    <path d="m0 0l755.9055 0l0 755.9055l-755.9055 0l0 -755.9055z" clip-rule="nonzero" />
  </clipPath>
  <g clip-path="url(#p.0)">
    <path fill="#000000" fill-opacity="0.0" d="m0 0l755.9055 0l0 755.9055l-755.9055 0z" fill-rule="evenodd" />
    <path classname="bg" fill="#00c9cc" d="m58.62489 293.31473l85.549805 -146.49393l148.16023 -84.58768l171.09961 0l148.16025 84.58768l85.549805 146.49393l0 169.17535l-85.549805 146.49393l-148.16025 84.58771l-171.09961 0l-148.16023 -84.58771l-85.549805 -146.49393z" fill-rule="evenodd" />
    <path fill="#000000" fill-opacity="0.0" d="m11.996055 377.99948l180.91795 -313.5274l370.16412 0l180.91791 313.5274l-180.91791 313.52744l-370.16412 0z" fill-rule="evenodd" />
    <path class="external" stroke="#117888" stroke-width="8.0" stroke-linejoin="round" stroke-linecap="butt" d="m11.996055 377.99948l180.91795 -313.5274l370.16412 0l180.91791 313.5274l-180.91791 313.52744l-370.16412 0z" fill-rule="evenodd" />
    <path fill="#000000" fill-opacity="0.0" d="m61.02362 197.03937l316.1036 -181.54414l318.75327 181.95468l-0.9985962 361.41626l-316.1036 181.54413l-318.7533 -181.95465z" fill-rule="evenodd" />
    <path class="external" stroke="#117888" stroke-width="12.0" stroke-linejoin="round" stroke-linecap="butt" d="m61.02362 197.03937l316.1036 -181.54414l318.75327 181.95468l-0.9985962 361.41626l-316.1036 181.54413l-318.7533 -181.95465z" fill-rule="evenodd" />
 
    <path class="name" stroke="#0b505b" stroke-width="8.0" stroke-linejoin="round" stroke-linecap="butt" d="m285.99347 208.14973l-1.1686096 339.6786" fill-rule="evenodd" />
    <path class="name" stroke="#0b505b" stroke-width="8.0" stroke-linejoin="round" stroke-linecap="butt" d="m285.9888 211.46642l94.09482 241.37422" fill-rule="evenodd" />
    <path class="name" stroke="#0b505b" stroke-width="8.0" stroke-linejoin="round" stroke-linecap="butt" d="m472.99747 208.14973l1.1686096 339.6786" fill-rule="evenodd" />
    <path class="name" stroke="#0b505b" stroke-width="8.0" stroke-linejoin="round" stroke-linecap="butt" d="m281.44608 544.51154l161.18176 0" fill-rule="evenodd" />
    <path class="name" stroke="#0b505b" stroke-width="8.0" stroke-linejoin="round" stroke-linecap="butt" d="m473.00214 211.46642l-94.09482 241.37422" fill-rule="evenodd" />
  </g>
</svg>